<svg xmlns="http://www.w3.org/2000/svg" viewBox="0 0 512 512" role="img" aria-labelledby="title desc">
  <title id="title">py-mclustR sticker</title>
  <desc id="desc">OmicVerse repository hex sticker for py-mclustR.</desc>
  <defs>
    <linearGradient id="bg" x1="112" y1="90" x2="398" y2="430" gradientUnits="userSpaceOnUse">
      <stop offset="0" stop-color="#050706"/>
      <stop offset=".58" stop-color="#020403"/>
      <stop offset="1" stop-color="#000000"/>
    </linearGradient>
  </defs>
  <polygon points="256,34 450,146 450,368 256,480 62,368 62,146" fill="#000000" opacity=".34"/>
  <polygon points="256,22 458,139 458,373 256,490 54,373 54,139" fill="url(#bg)" stroke="#0B0F0A" stroke-width="19" stroke-linejoin="round"/>
  <polygon points="256,22 458,139 458,373 256,490 54,373 54,139" fill="none" stroke="#E8FFE0" stroke-width="12" stroke-linejoin="round"/>
  <g opacity=".22" stroke="#3FD36B" stroke-width="2.2">
    <path d="M112 166h288M100 222h312M100 278h312M112 334h288"/>
    <path d="M152 126v236M204 104v274M256 96v286M308 104v274M360 126v236"/>
  </g>
  
  <g id="motif">
    <ellipse cx="187" cy="221" rx="48" ry="72" fill="#30D158" opacity=".34" stroke="#30D158" stroke-width="7" transform="rotate(-24 187 221)"/>
    <ellipse cx="293" cy="221" rx="58" ry="42" fill="#00C7BE" opacity=".34" stroke="#00C7BE" stroke-width="7" transform="rotate(19 293 221)"/>
    <ellipse cx="258" cy="287" rx="62" ry="36" fill="#FFD60A" opacity=".34" stroke="#FFD60A" stroke-width="7"/>
    <circle cx="178" cy="206" r="9" fill="#FFFFFF"/><circle cx="207" cy="244" r="9" fill="#FFFFFF"/><circle cx="282" cy="204" r="9" fill="#FFFFFF"/><circle cx="310" cy="233" r="9" fill="#FFFFFF"/><circle cx="252" cy="288" r="9" fill="#FFFFFF"/>
  </g>
  <path id="label" d="M306.10,385.09 L309.83,391.55 L305.90,393.82 L296.09,376.83 L300.02,374.56 L301.06,376.36 Q301.25,374.81 301.95,373.73 Q302.64,372.65 303.93,371.90 Q306.21,370.59 308.71,371.56 Q311.22,372.52 312.86,375.37 Q314.50,378.21 314.09,380.87 Q313.67,383.52 311.39,384.83 Q310.11,385.58 308.82,385.64 Q307.54,385.70 306.10,385.09 Z M304.12,375.61 Q302.85,376.34 302.71,377.66 Q302.57,378.98 303.58,380.72 Q304.59,382.47 305.80,383.01 Q307.02,383.55 308.28,382.82 Q309.54,382.09 309.68,380.78 Q309.81,379.47 308.79,377.71 Q307.78,375.95 306.58,375.42 Q305.38,374.88 304.12,375.61 Z M310.58,368.46 L314.52,366.18 L322.66,372.63 L320.65,362.65 L324.58,360.38 L327.18,376.84 Q327.59,379.35 327.02,380.77 Q326.46,382.19 324.76,383.17 L322.48,384.49 L320.99,381.90 L322.22,381.19 Q323.22,380.61 323.49,380.03 Q323.76,379.45 323.54,378.48 L323.45,378.07 L310.58,368.46 Z M328.65,363.67 L335.56,359.68 L337.40,362.88 L330.50,366.87 L328.65,363.67 Z M348.82,349.11 Q348.91,347.53 349.59,346.34 Q350.27,345.15 351.50,344.44 Q353.62,343.21 355.49,343.88 Q357.35,344.54 358.80,347.04 L363.13,354.54 L359.17,356.83 L355.46,350.40 Q355.39,350.25 355.30,350.10 Q355.22,349.94 355.06,349.66 Q354.30,348.35 353.58,347.98 Q352.85,347.61 351.99,348.11 Q350.87,348.76 350.80,350.03 Q350.72,351.31 351.70,353.07 L355.20,359.12 L351.24,361.40 L347.53,354.98 Q346.35,352.94 345.66,352.55 Q344.97,352.17 344.07,352.69 Q342.93,353.34 342.85,354.62 Q342.77,355.91 343.77,357.64 L347.27,363.70 L343.31,365.98 L336.20,353.67 L340.16,351.38 L341.20,353.18 Q341.33,351.72 341.96,350.65 Q342.60,349.58 343.73,348.93 Q345.00,348.19 346.34,348.24 Q347.67,348.29 348.82,349.11 Z M369.86,334.75 L371.71,337.96 Q370.59,337.87 369.63,338.08 Q368.67,338.28 367.80,338.78 Q366.16,339.73 365.79,341.22 Q365.43,342.71 366.43,344.44 Q367.42,346.17 368.90,346.60 Q370.37,347.03 372.02,346.08 Q372.94,345.55 373.61,344.79 Q374.28,344.04 374.68,343.09 L376.54,346.31 Q375.81,347.19 374.96,347.91 Q374.11,348.63 373.15,349.18 Q369.82,351.10 366.95,350.48 Q364.08,349.85 362.32,346.81 Q360.56,343.76 361.46,340.97 Q362.35,338.17 365.69,336.25 Q366.65,335.69 367.69,335.32 Q368.73,334.94 369.86,334.75 Z M370.27,327.60 L374.20,325.33 L384.08,342.44 L380.15,344.71 L370.27,327.60 Z M384.96,335.54 L380.62,328.02 L384.58,325.74 L385.29,326.97 Q385.87,327.97 386.73,329.49 Q387.59,331.00 387.88,331.51 Q388.74,332.99 389.19,333.60 Q389.65,334.21 390.01,334.40 Q390.47,334.65 390.98,334.63 Q391.49,334.62 392.00,334.32 Q393.23,333.61 393.39,332.26 Q393.54,330.91 392.57,329.23 L389.06,323.15 L393.00,320.87 L400.11,333.19 L396.17,335.46 L395.15,333.68 Q394.88,335.27 394.18,336.36 Q393.48,337.44 392.28,338.13 Q390.14,339.37 388.27,338.70 Q386.40,338.04 384.96,335.54 Z M406.62,313.52 L408.35,316.51 Q406.78,316.71 405.45,317.13 Q404.12,317.54 403.08,318.15 Q401.96,318.79 401.57,319.39 Q401.20,319.98 401.53,320.56 Q401.80,321.04 402.36,321.06 Q402.92,321.07 404.06,320.58 L404.81,320.27 Q408.05,318.91 409.60,319.19 Q411.15,319.46 412.24,321.35 Q413.38,323.31 412.50,325.14 Q411.62,326.97 408.74,328.63 Q407.52,329.34 406.10,329.90 Q404.69,330.45 403.09,330.87 L401.36,327.88 Q402.87,327.76 404.27,327.34 Q405.68,326.91 406.95,326.17 Q408.11,325.51 408.51,324.85 Q408.90,324.20 408.54,323.57 Q408.24,323.04 407.69,323.01 Q407.14,322.99 405.85,323.54 L405.11,323.85 Q402.29,325.04 400.72,324.76 Q399.15,324.48 398.11,322.66 Q396.98,320.70 397.77,318.99 Q398.57,317.26 401.34,315.67 Q402.43,315.04 403.72,314.51 Q405.01,313.98 406.62,313.52 Z M412.46,304.97 L414.48,308.47 L418.54,306.13 L420.17,308.94 L416.11,311.29 L419.12,316.51 Q419.62,317.37 420.13,317.47 Q420.65,317.58 421.66,316.99 L423.68,315.82 L425.31,318.64 L421.93,320.59 Q419.60,321.93 418.07,321.52 Q416.53,321.11 415.19,318.78 L412.17,313.56 L410.21,314.69 L408.59,311.87 L410.55,310.74 L408.53,307.25 L412.46,304.97 Z" fill="#FFFFFF"/>
</svg>
